<svg width="733" height="112" viewBox="0 0 733 112" fill="none" xmlns="http://www.w3.org/2000/svg">
<path d="M695.145 111.015C687.077 111.015 680.005 109.321 673.928 105.935C667.952 102.548 663.27 97.8662 659.884 91.8897C656.596 85.9131 654.953 79.04 654.953 71.2705C654.953 63.501 656.596 56.6777 659.884 50.8008C663.27 44.8242 667.952 40.1924 673.928 36.9053C679.905 33.5186 686.878 31.8252 694.846 31.8252C702.417 31.8252 708.991 33.4189 714.569 36.6064C720.147 39.6943 724.48 44.0772 727.568 49.7549C730.656 55.4326 732.2 62.0566 732.2 69.627C732.2 71.0215 732.15 72.3164 732.051 73.5117C731.951 74.707 731.802 75.9024 731.602 77.0977H666.607V63.9492H717.109L713.224 67.5352C713.224 60.3633 711.581 54.9844 708.294 51.3984C705.007 47.8125 700.425 46.0195 694.548 46.0195C688.173 46.0195 683.093 48.2109 679.307 52.5938C675.622 56.9766 673.779 63.3018 673.779 71.5693C673.779 79.7373 675.622 86.0127 679.307 90.3955C683.093 94.6787 688.422 96.8203 695.295 96.8203C699.279 96.8203 702.765 96.0732 705.754 94.5791C708.742 93.085 710.933 90.794 712.328 87.7061H730.108C727.618 94.8779 723.385 100.556 717.408 104.739C711.531 108.923 704.11 111.015 695.145 111.015Z" fill="#68645F"/>
<path d="M615.607 111.015C605.049 111.015 596.632 108.823 590.356 104.44C584.081 99.958 580.644 93.7822 580.047 85.9131H597.229C597.727 89.7979 599.57 92.7363 602.758 94.7285C605.945 96.7207 610.228 97.7168 615.607 97.7168C620.488 97.7168 624.124 96.9697 626.514 95.4756C629.005 93.8818 630.25 91.6406 630.25 88.752C630.25 86.6602 629.552 84.9668 628.158 83.6719C626.763 82.2774 624.124 81.1318 620.239 80.2354L607.987 77.3965C599.62 75.6035 593.394 72.8145 589.31 69.0293C585.326 65.1445 583.334 60.3135 583.334 54.5361C583.334 47.4639 586.023 41.9355 591.402 37.9512C596.881 33.8672 604.401 31.8252 613.964 31.8252C623.427 31.8252 630.997 33.8672 636.675 37.9512C642.452 41.9355 645.639 47.4639 646.237 54.5361H629.054C628.556 51.4482 626.963 49.1074 624.273 47.5137C621.683 45.9199 618.097 45.1231 613.515 45.1231C609.232 45.1231 605.995 45.8203 603.803 47.2149C601.612 48.5098 600.516 50.4522 600.516 53.042C600.516 55.0342 601.363 56.7275 603.056 58.1221C604.75 59.417 607.589 60.5625 611.573 61.5586L624.721 64.5469C632.192 66.2402 637.82 69.1787 641.605 73.3623C645.49 77.5459 647.432 82.4766 647.432 88.1543C647.432 95.4258 644.643 101.054 639.065 105.038C633.487 109.022 625.668 111.015 615.607 111.015Z" fill="#68645F"/>
<path d="M549.951 109.521V33.3193H568.777V109.521H549.951ZM549.054 20.7686V0H569.524V20.7686H549.054Z" fill="#68645F"/>
<path d="M449.304 109.521L425.996 33.3193H445.718L459.464 90.5449H458.12L475.003 33.3193H492.186L509.369 90.5449H507.875L521.471 33.3193H540.746L517.437 109.521H499.806L482.624 52.8926H484.118L466.935 109.521H449.304Z" fill="#68645F"/>
<path d="M397.97 109.521V33.3193H416.797V109.521H397.97ZM397.074 20.7686V0H417.544V20.7686H397.074Z" fill="#68645F"/>
<path d="M373.925 111.015C364.561 111.015 357.638 108.823 353.156 104.44C348.773 99.958 346.582 93.2842 346.582 84.4189V15.9873L365.557 8.96484V84.8672C365.557 88.5527 366.553 91.292 368.546 93.085C370.538 94.8779 373.676 95.7744 377.959 95.7744C379.652 95.7744 381.146 95.6748 382.441 95.4756C383.836 95.1768 385.131 94.8281 386.326 94.4297V109.072C385.131 109.67 383.437 110.118 381.246 110.417C379.054 110.815 376.614 111.015 373.925 111.015ZM331.939 48.1113V33.3193H386.326V48.1113H331.939Z" fill="#68645F"/>
<path d="M277.356 111.015C272.076 111.015 267.494 109.919 263.61 107.728C259.824 105.437 256.886 102.349 254.794 98.4639C252.802 94.5791 251.806 90.1963 251.806 85.3154V33.3193H270.632V81.4307C270.632 86.1123 271.778 89.6484 274.069 92.0391C276.459 94.4297 279.796 95.625 284.079 95.625C287.964 95.625 291.351 94.7285 294.24 92.9356C297.228 91.1426 299.569 88.6524 301.262 85.4649C303.055 82.1777 303.951 78.4922 303.951 74.4082L305.894 92.6367C303.404 98.2149 299.668 102.697 294.688 106.084C289.807 109.371 284.03 111.015 277.356 111.015ZM304.549 109.521V91.5908H303.951V33.3193H322.927V109.521H304.549Z" fill="#68645F"/>
<path d="M221.527 109.521C221.029 107.528 220.63 105.337 220.331 102.946C220.132 100.556 220.032 97.667 220.032 94.2803H219.435V58.1221C219.435 54.1377 218.289 51.1494 215.998 49.1572C213.807 47.0654 210.42 46.0195 205.838 46.0195C201.356 46.0195 197.77 46.8662 195.08 48.5596C192.49 50.1533 190.897 52.4941 190.299 55.582H172.22C173.017 48.5098 176.404 42.7822 182.38 38.3994C188.357 34.0166 196.375 31.8252 206.436 31.8252C216.895 31.8252 224.814 34.2158 230.193 38.9971C235.572 43.6787 238.261 50.6016 238.261 59.7656V94.2803C238.261 96.6709 238.41 99.1113 238.709 101.602C239.108 104.092 239.656 106.731 240.353 109.521H221.527ZM195.08 111.015C187.41 111.015 181.284 109.122 176.702 105.337C172.22 101.452 169.979 96.2725 169.979 89.7979C169.979 82.8252 172.519 77.2969 177.599 73.2129C182.679 69.1289 189.851 66.3897 199.115 64.9951L222.871 61.4092V73.3623L202.252 76.5C197.77 77.1973 194.383 78.4424 192.092 80.2354C189.901 82.0283 188.805 84.5186 188.805 87.7061C188.805 90.5947 189.851 92.8359 191.943 94.4297C194.034 95.9238 196.923 96.6709 200.609 96.6709C205.988 96.6709 210.47 95.3262 214.056 92.6367C217.642 89.9473 219.435 86.6602 219.435 82.7754L221.527 94.2803C219.534 99.7588 216.247 103.942 211.665 106.831C207.183 109.62 201.655 111.015 195.08 111.015Z" fill="#68645F"/>
<path d="M126.037 111.015C117.969 111.015 110.897 109.321 104.821 105.935C98.844 102.548 94.1624 97.8662 90.7756 91.8897C87.4885 85.9131 85.845 79.04 85.845 71.2705C85.845 63.501 87.4885 56.6777 90.7756 50.8008C94.1624 44.8242 98.844 40.1924 104.821 36.9053C110.797 33.5186 117.77 31.8252 125.739 31.8252C133.309 31.8252 139.883 33.4189 145.461 36.6064C151.039 39.6943 155.372 44.0772 158.46 49.7549C161.548 55.4326 163.092 62.0566 163.092 69.627C163.092 71.0215 163.042 72.3164 162.943 73.5117C162.843 74.707 162.694 75.9024 162.494 77.0977H97.4993V63.9492H148.001L144.116 67.5352C144.116 60.3633 142.473 54.9844 139.186 51.3984C135.899 47.8125 131.317 46.0195 125.44 46.0195C119.065 46.0195 113.985 48.2109 110.199 52.5938C106.514 56.9766 104.671 63.3018 104.671 71.5693C104.671 79.7373 106.514 86.0127 110.199 90.3955C113.985 94.6787 119.314 96.8203 126.187 96.8203C130.171 96.8203 133.657 96.0732 136.646 94.5791C139.634 93.085 141.825 90.794 143.22 87.7061H161C158.51 94.8779 154.277 100.556 148.3 104.739C142.423 108.923 135.002 111.015 126.037 111.015Z" fill="#68645F"/>
<path d="M43.4795 111.015C36.208 111.015 30.2314 109.321 25.5498 105.935C20.9678 102.448 18.1289 97.667 17.0332 91.5908L18.3779 91.4414V109.521H0V1.94238H18.8262V50.502L17.4814 50.2031C18.7764 44.5254 21.8145 40.043 26.5957 36.7559C31.4766 33.4688 37.5029 31.8252 44.6748 31.8252C51.4482 31.8252 57.3252 33.4688 62.3057 36.7559C67.3857 39.9434 71.3203 44.4756 74.1094 50.3525C76.8984 56.2295 78.293 63.1523 78.293 71.1211C78.293 79.1895 76.8486 86.2119 73.96 92.1885C71.0713 98.165 67.0371 102.797 61.8574 106.084C56.6777 109.371 50.5518 111.015 43.4795 111.015ZM38.6982 95.4756C44.7744 95.4756 49.6055 93.3838 53.1914 89.2002C56.7773 84.917 58.5703 78.9404 58.5703 71.2705C58.5703 63.6006 56.7275 57.6738 53.042 53.4902C49.4561 49.3066 44.625 47.2148 38.5488 47.2148C32.5723 47.2148 27.7412 49.3564 24.0557 53.6397C20.3701 57.8232 18.5273 63.75 18.5273 71.4199C18.5273 79.0898 20.3701 85.0166 24.0557 89.2002C27.7412 93.3838 32.6221 95.4756 38.6982 95.4756Z" fill="#68645F"/>
</svg>
