<svg width="168" height="168" viewBox="0 0 168 168" fill="none" xmlns="http://www.w3.org/2000/svg">
<rect width="168" height="168" rx="84" fill="#F1F0ED"/>
<g clip-path="url(#clip0_18612_1637)">
<path d="M75.9925 43.2156C76.0946 42.1707 76.5589 41.1944 77.3051 40.4558C78.0512 39.7172 79.0321 39.2628 80.078 39.1713C81.1239 39.0797 82.1689 39.3569 83.0319 39.9547C83.895 40.5526 84.5218 41.4334 84.8038 42.4447L91.6935 66.9425C92.183 68.6842 93.1861 70.2379 94.572 71.4008C95.9579 72.5637 97.6622 73.2819 99.4625 73.4615L124.784 75.9925C125.829 76.0946 126.806 76.5589 127.544 77.305C128.283 78.0512 128.737 79.0321 128.829 80.078C128.92 81.1239 128.643 82.1689 128.045 83.0319C127.447 83.895 126.567 84.5218 125.555 84.8037L101.058 91.6934C99.3159 92.1829 97.7622 93.1861 96.5992 94.572C95.4363 95.9579 94.7182 97.6622 94.5386 99.4625L92.0076 124.784C91.9055 125.829 91.4412 126.806 90.695 127.544C89.9489 128.283 88.9679 128.737 87.9221 128.829C86.8762 128.92 85.8312 128.643 84.9682 128.045C84.1051 127.447 83.4783 126.567 83.1963 125.555L76.3066 101.058C75.8171 99.3158 74.814 97.7621 73.4281 96.5992C72.0421 95.4363 70.3379 94.7182 68.5376 94.5386L43.2156 92.0075C42.1707 91.9054 41.1944 91.4411 40.4558 90.695C39.7172 89.9489 39.2628 88.9679 39.1713 87.922C39.0798 86.8761 39.3569 85.8312 39.9548 84.9681C40.5526 84.1051 41.4334 83.4783 42.4448 83.1963L66.9425 76.3066C68.6842 75.8171 70.2379 74.8139 71.4008 73.428C72.5638 72.0421 73.2819 70.3378 73.4615 68.5376L75.9925 43.2156Z" fill="#68645F"/>
</g>
<defs>
<clipPath id="clip0_18612_1637">
<rect width="90" height="90" fill="white" transform="translate(35.2493 43.0933) rotate(-5)"/>
</clipPath>
</defs>
</svg>
