<svg width="965" height="168" viewBox="0 0 965 168" fill="none" xmlns="http://www.w3.org/2000/svg">
<rect x="10" width="168" height="168" rx="84" fill="#F1F0ED"/>
<g clip-path="url(#clip0_18672_1515)">
<path d="M85.9925 43.2156C86.0946 42.1707 86.5589 41.1944 87.3051 40.4558C88.0512 39.7172 89.0321 39.2628 90.078 39.1713C91.1239 39.0797 92.1689 39.3569 93.0319 39.9547C93.895 40.5526 94.5218 41.4334 94.8038 42.4447L101.693 66.9425C102.183 68.6842 103.186 70.2379 104.572 71.4008C105.958 72.5637 107.662 73.2819 109.462 73.4615L134.784 75.9925C135.829 76.0946 136.806 76.5589 137.544 77.305C138.283 78.0512 138.737 79.0321 138.829 80.078C138.92 81.1239 138.643 82.1689 138.045 83.0319C137.447 83.895 136.567 84.5218 135.555 84.8037L111.058 91.6934C109.316 92.1829 107.762 93.1861 106.599 94.572C105.436 95.9579 104.718 97.6622 104.539 99.4625L102.008 124.784C101.905 125.829 101.441 126.806 100.695 127.544C99.9489 128.283 98.9679 128.737 97.9221 128.829C96.8762 128.92 95.8312 128.643 94.9682 128.045C94.1051 127.447 93.4783 126.567 93.1963 125.555L86.3066 101.058C85.8171 99.3158 84.814 97.7621 83.4281 96.5992C82.0421 95.4363 80.3379 94.7182 78.5376 94.5386L53.2156 92.0075C52.1707 91.9054 51.1944 91.4411 50.4558 90.695C49.7172 89.9489 49.2628 88.9679 49.1713 87.922C49.0798 86.8761 49.3569 85.8312 49.9548 84.9681C50.5526 84.1051 51.4334 83.4783 52.4448 83.1963L76.9425 76.3066C78.6842 75.8171 80.2379 74.8139 81.4008 73.428C82.5638 72.0421 83.2819 70.3378 83.4615 68.5376L85.9925 43.2156Z" fill="#68645F"/>
</g>
<path d="M917.145 139.507C909.077 139.507 902.004 137.814 895.928 134.427C889.952 131.041 885.27 126.359 881.883 120.382C878.596 114.406 876.953 107.533 876.953 99.7632C876.953 91.9937 878.596 85.1704 881.883 79.2935C885.27 73.3169 889.952 68.6851 895.928 65.3979C901.905 62.0112 908.877 60.3179 916.846 60.3179C924.417 60.3179 930.991 61.9116 936.569 65.0991C942.147 68.187 946.48 72.5698 949.568 78.2476C952.656 83.9253 954.2 90.5493 954.2 98.1196C954.2 99.5142 954.15 100.809 954.05 102.004C953.951 103.2 953.801 104.395 953.602 105.59H888.607V92.4419H939.109L935.224 96.0278C935.224 88.856 933.581 83.4771 930.293 79.8911C927.006 76.3052 922.424 74.5122 916.547 74.5122C910.172 74.5122 905.092 76.7036 901.307 81.0864C897.622 85.4692 895.779 91.7944 895.779 100.062C895.779 108.23 897.622 114.505 901.307 118.888C905.092 123.171 910.421 125.313 917.294 125.313C921.279 125.313 924.765 124.566 927.753 123.072C930.742 121.578 932.933 119.287 934.328 116.199H952.108C949.618 123.371 945.384 129.048 939.408 133.232C933.531 137.416 926.11 139.507 917.145 139.507Z" fill="#68645F"/>
<path d="M837.607 139.507C827.049 139.507 818.632 137.316 812.356 132.933C806.081 128.451 802.644 122.275 802.047 114.406H819.229C819.727 118.291 821.57 121.229 824.758 123.221C827.945 125.213 832.228 126.209 837.607 126.209C842.488 126.209 846.124 125.462 848.514 123.968C851.005 122.375 852.25 120.133 852.25 117.245C852.25 115.153 851.552 113.459 850.158 112.165C848.763 110.77 846.124 109.625 842.239 108.728L829.987 105.889C821.62 104.096 815.394 101.307 811.31 97.522C807.326 93.6372 805.334 88.8062 805.334 83.0288C805.334 75.9565 808.023 70.4282 813.402 66.4438C818.881 62.3599 826.401 60.3179 835.964 60.3179C845.427 60.3179 852.997 62.3599 858.675 66.4438C864.452 70.4282 867.639 75.9565 868.237 83.0288H851.054C850.556 79.9409 848.963 77.6001 846.273 76.0064C843.683 74.4126 840.097 73.6157 835.515 73.6157C831.232 73.6157 827.995 74.313 825.803 75.7075C823.612 77.0025 822.516 78.9448 822.516 81.5347C822.516 83.5269 823.363 85.2202 825.056 86.6148C826.75 87.9097 829.589 89.0552 833.573 90.0513L846.721 93.0396C854.192 94.7329 859.82 97.6714 863.605 101.855C867.49 106.039 869.432 110.969 869.432 116.647C869.432 123.918 866.643 129.546 861.065 133.531C855.487 137.515 847.668 139.507 837.607 139.507Z" fill="#68645F"/>
<path d="M771.951 138.013V61.812H790.777V138.013H771.951ZM771.054 49.2612V28.4927H791.524V49.2612H771.054Z" fill="#68645F"/>
<path d="M671.304 138.013L647.996 61.812H667.718L681.464 119.038H680.12L697.003 61.812H714.186L731.369 119.038H729.875L743.471 61.812H762.746L739.437 138.013H721.806L704.624 81.3853H706.118L688.935 138.013H671.304Z" fill="#68645F"/>
<path d="M619.97 138.013V61.812H638.797V138.013H619.97ZM619.074 49.2612V28.4927H639.544V49.2612H619.074Z" fill="#68645F"/>
<path d="M595.925 139.507C586.561 139.507 579.638 137.316 575.156 132.933C570.773 128.451 568.582 121.777 568.582 112.912V44.48L587.557 37.4575V113.36C587.557 117.045 588.553 119.785 590.546 121.578C592.538 123.371 595.676 124.267 599.959 124.267C601.652 124.267 603.146 124.167 604.441 123.968C605.836 123.669 607.131 123.321 608.326 122.922V137.565C607.131 138.163 605.437 138.611 603.246 138.91C601.054 139.308 598.614 139.507 595.925 139.507ZM553.939 76.604V61.812H608.326V76.604H553.939Z" fill="#68645F"/>
<path d="M499.355 139.507C494.076 139.507 489.494 138.412 485.609 136.22C481.824 133.929 478.886 130.841 476.794 126.957C474.802 123.072 473.806 118.689 473.806 113.808V61.812H492.632V109.923C492.632 114.605 493.777 118.141 496.068 120.532C498.459 122.922 501.796 124.118 506.079 124.118C509.964 124.118 513.351 123.221 516.239 121.428C519.228 119.635 521.568 117.145 523.262 113.958C525.055 110.67 525.951 106.985 525.951 102.901L527.894 121.129C525.403 126.708 521.668 131.19 516.688 134.577C511.807 137.864 506.029 139.507 499.355 139.507ZM526.549 138.013V120.084H525.951V61.812H544.927V138.013H526.549Z" fill="#68645F"/>
<path d="M443.527 138.013C443.029 136.021 442.63 133.83 442.331 131.439C442.132 129.048 442.032 126.16 442.032 122.773H441.435V86.6148C441.435 82.6304 440.289 79.6421 437.998 77.6499C435.807 75.5581 432.42 74.5122 427.838 74.5122C423.356 74.5122 419.77 75.3589 417.08 77.0523C414.49 78.646 412.897 80.9868 412.299 84.0747H394.22C395.017 77.0024 398.404 71.2749 404.38 66.8921C410.357 62.5093 418.375 60.3179 428.436 60.3179C438.895 60.3179 446.814 62.7085 452.193 67.4897C457.572 72.1714 460.261 79.0942 460.261 88.2583V122.773C460.261 125.164 460.41 127.604 460.709 130.094C461.108 132.584 461.656 135.224 462.353 138.013H443.527ZM417.08 139.507C409.41 139.507 403.284 137.615 398.702 133.83C394.22 129.945 391.979 124.765 391.979 118.291C391.979 111.318 394.519 105.79 399.599 101.706C404.679 97.6216 411.851 94.8823 421.115 93.4878L444.871 89.9019V101.855L424.252 104.993C419.77 105.69 416.383 106.935 414.092 108.728C411.901 110.521 410.805 113.011 410.805 116.199C410.805 119.087 411.851 121.329 413.943 122.922C416.034 124.417 418.923 125.164 422.609 125.164C427.988 125.164 432.47 123.819 436.056 121.129C439.642 118.44 441.435 115.153 441.435 111.268L443.527 122.773C441.534 128.251 438.247 132.435 433.665 135.324C429.183 138.113 423.655 139.507 417.08 139.507Z" fill="#68645F"/>
<path d="M348.037 139.507C339.969 139.507 332.897 137.814 326.821 134.427C320.844 131.041 316.162 126.359 312.776 120.382C309.489 114.406 307.845 107.533 307.845 99.7632C307.845 91.9937 309.489 85.1704 312.776 79.2935C316.162 73.3169 320.844 68.6851 326.821 65.3979C332.797 62.0112 339.77 60.3179 347.739 60.3179C355.309 60.3179 361.883 61.9116 367.461 65.0991C373.039 68.187 377.372 72.5698 380.46 78.2476C383.548 83.9253 385.092 90.5493 385.092 98.1196C385.092 99.5142 385.042 100.809 384.943 102.004C384.843 103.2 384.694 104.395 384.494 105.59H319.499V92.4419H370.001L366.116 96.0278C366.116 88.856 364.473 83.4771 361.186 79.8911C357.899 76.3052 353.317 74.5122 347.44 74.5122C341.065 74.5122 335.985 76.7036 332.199 81.0864C328.514 85.4692 326.671 91.7944 326.671 100.062C326.671 108.23 328.514 114.505 332.199 118.888C335.985 123.171 341.314 125.313 348.187 125.313C352.171 125.313 355.657 124.566 358.646 123.072C361.634 121.578 363.825 119.287 365.22 116.199H383C380.51 123.371 376.277 129.048 370.3 133.232C364.423 137.416 357.002 139.507 348.037 139.507Z" fill="#68645F"/>
<path d="M265.479 139.507C258.208 139.507 252.231 137.814 247.55 134.427C242.968 130.941 240.129 126.16 239.033 120.083L240.378 119.934V138.013H222V30.4351H240.826V78.9946L239.481 78.6958C240.776 73.0181 243.814 68.5356 248.596 65.2485C253.477 61.9614 259.503 60.3179 266.675 60.3179C273.448 60.3179 279.325 61.9614 284.306 65.2485C289.386 68.436 293.32 72.9683 296.109 78.8452C298.898 84.7222 300.293 91.645 300.293 99.6138C300.293 107.682 298.849 114.705 295.96 120.681C293.071 126.658 289.037 131.29 283.857 134.577C278.678 137.864 272.552 139.507 265.479 139.507ZM260.698 123.968C266.774 123.968 271.605 121.876 275.191 117.693C278.777 113.41 280.57 107.433 280.57 99.7632C280.57 92.0933 278.728 86.1665 275.042 81.9829C271.456 77.7993 266.625 75.7075 260.549 75.7075C254.572 75.7075 249.741 77.8491 246.056 82.1323C242.37 86.3159 240.527 92.2427 240.527 99.9126C240.527 107.583 242.37 113.509 246.056 117.693C249.741 121.876 254.622 123.968 260.698 123.968Z" fill="#68645F"/>
<defs>
<clipPath id="clip0_18672_1515">
<rect width="90" height="90" fill="white" transform="translate(45.2493 43.0933) rotate(-5)"/>
</clipPath>
</defs>
</svg>
